<svg width="295" height="777" viewBox="0 0 295 777" fill="none" xmlns="http://www.w3.org/2000/svg">
<path d="M270.376 -26.848L294.242 -19.4017L258.753 69.2908L245.155 104.604L237.556 142.423L220.966 173.712L216.893 201.946L198.788 238.783L198.722 265.495L179.107 305.863L179.041 332.575L161.413 378.482L138.286 422.892L117.591 495.015L108.99 533.34L90.3346 590.338L75.7247 630.19L62.5612 692.214L42.9741 744.678L42.8712 786.235L19.0059 778.789L270.376 -26.848Z" fill="#94EA0D"/>
<path d="M270.235 -13.4319L249.184 -20L227.346 72.0839L218.27 108.464L203.566 143.716L198.776 178.37L186.652 203.835L179.991 243.873L165.81 265.949L158.349 309.705L144.168 331.78L132.334 379.048L125.235 428.01L101.632 498.541L87.3756 534.745L70.3697 591.711L59.6007 632.376L35.9862 690.564L22.0623 744.285L3.61615e-05 778.629L21.0506 785.197L270.235 -13.4319Z" fill="#94EA0D"/>
</svg>
