<svg width="128" height="254" viewBox="0 0 128 254" fill="none" xmlns="http://www.w3.org/2000/svg">
<path d="M212.748 68.9888C262.063 83.4092 272.754 148.317 229.397 170.073L222.228 173.67C208.991 180.313 199.618 192.283 196.345 206.727L194.573 214.549C183.852 261.859 118.275 267.05 92.4459 222.633L88.1755 215.289C80.2898 201.729 67.2661 191.531 52.2098 187.129L44.0561 184.744C-5.25941 170.324 -15.9501 105.416 27.407 83.6601L34.5755 80.063C47.8127 73.4207 57.1852 61.4504 60.4584 47.0065L62.2309 39.1843C72.9518 -8.12555 138.529 -13.3165 164.358 31.1002L168.628 38.4439C176.514 52.0046 189.538 62.202 204.594 66.6046L212.748 68.9888Z" fill="#94EA0D"/>
</svg>
