<svg width="129" height="254" viewBox="0 0 129 254" fill="none" xmlns="http://www.w3.org/2000/svg">
<path d="M84.7476 68.9888C134.063 83.4092 144.754 148.317 101.397 170.073L94.2282 173.67C80.9911 180.313 71.6185 192.283 68.3454 206.727L66.5728 214.549C55.8519 261.859 -9.72536 267.05 -35.554 222.633L-39.8245 215.289C-47.7101 201.729 -60.7339 191.531 -75.7902 187.129L-83.9439 184.744C-133.259 170.324 -143.95 105.416 -100.593 83.6601L-93.4244 80.063C-80.1873 73.4207 -70.8147 61.4504 -67.5416 47.0065L-65.769 39.1843C-55.0482 -8.12555 10.5291 -13.3165 36.3578 31.1002L40.6282 38.4439C48.5139 52.0046 61.5376 62.202 76.5939 66.6046L84.7476 68.9888Z" fill="#94EA0D"/>
</svg>
